<?xml version="1.0" encoding="utf-8"?>
<!-- Generator: Adobe Illustrator 24.3.0, SVG Export Plug-In . SVG Version: 6.00 Build 0)  -->
<svg version="1.1" id="Camada_1" xmlns="http://www.w3.org/2000/svg" xmlns:xlink="http://www.w3.org/1999/xlink" x="0px" y="0px"
	 viewBox="0 0 1000 1000" style="enable-background:new 0 0 1000 1000;" xml:space="preserve">
<style type="text/css">
	.st0{fill:#FFFFFF;}
</style>
<path class="st0" d="M45,507.8h149.4c0,0,5.2,164.9,157.2,163.6s168.7-134,168.7-134s-12.9-173.9,139.1-170
	c152,3.9,153.3,134,148.1,186.8C802.4,607,783,726.6,633.6,835c-145.6,105.6-343.9,40.1-390.3,13C197,820.8,90.9,752.7,54,603.1
	C34.1,522.6,45,507.8,45,507.8z"/>
<path class="st0" d="M975.2,507.5L825.7,508c0,0-5.7-164.9-157.7-163c-152,1.8-168.3,134.6-168.3,134.6s13.5,173.9-138.5,170.5
	c-152-3.3-153.8-133.4-148.8-186.2s24-172.5,172.9-281.4c145.2-106.2,343.8-41.3,390.3-14.4c46.5,27,152.7,94.7,190.2,244.1
	C986,492.6,975.2,507.5,975.2,507.5z"/>
</svg>
